<?xml version="1.0" encoding="UTF-8"?><svg id="_レイヤー_1" xmlns="http://www.w3.org/2000/svg" viewBox="0 0 382.98 379.94"><defs><style>.cls-1{fill:#fff;}</style></defs><text/><path class="cls-1" d="M3.65,361.1h-.41c-2.16,0-3.24-1.42-3.24-4.26,0-.81.27-1.35.81-1.62,56.47-31.07,95.31-69.5,116.52-115.3h-61.8c-12.43,0-22.63.81-30.6,2.43l-4.26-16.01c11.08,2.16,22.7,3.24,34.85,3.24h61.4c7.97-8.92,12.97-13.37,15-13.37,2.43,0,8.51,4.33,18.24,12.97,3.92,3.51,5.88,6.69,5.88,9.52,0,3.24-4.59,6.15-13.78,8.71-15,29.18-34.72,53.23-59.17,72.14-21.35,16.62-47.82,30.46-79.43,41.54ZM200.41,192.3l.61,14.79c2.16,80.52,3.24,128.2,3.24,143.06,0,10.13-4.59,17.83-13.78,23.1-6.89,4.46-14.32,6.69-22.29,6.69-2.3,0-3.78-.41-4.46-1.22-.54-.68-1.01-2.37-1.42-5.07-.95-5.81-4.53-10.2-10.74-13.17-5.81-2.7-16.96-5.88-33.43-9.52-1.08-.27-1.62-1.15-1.62-2.63,0-1.89.67-2.84,2.03-2.84,22.42,1.62,39.92,2.43,52.48,2.43,4.73,0,7.09-2.23,7.09-6.69v-162.72h-80.24v6.28c0,6.89-5.27,10.33-15.81,10.33-6.89,0-10.33-2.63-10.33-7.9l1.62-82.88c0-33.23-.81-57.35-2.43-72.34,8.38,3.51,18.78,8.78,31.21,15.81h57.35c4.05-10.13,6.96-18.71,8.71-25.73,1.89-9.19,3.11-16.55,3.65-22.09,17.43,4.19,28.37,7.16,32.83,8.92,3.78,1.62,5.67,3.51,5.67,5.67,0,3.24-5.47,6.01-16.41,8.31-7.97,10.94-14.79,19.25-20.47,24.92h104.16c8.78-9.45,13.98-14.18,15.6-14.18,2.16,0,7.7,3.85,16.62,11.55,4.73,3.92,7.09,7.29,7.09,10.13,0,2.03-3.72,5.61-11.15,10.74v32.83l1.22,80.45c0,7.16-5.14,10.74-15.4,10.74-7.16,0-10.74-2.9-10.74-8.71v-2.84h-76.6c13.64,31.75,27.96,56.4,42.96,73.96,23.23-16.75,41.61-32.42,55.12-47.01,9.19-10.67,15.2-18.71,18.03-24.11,20.4,13.1,30.6,21.88,30.6,26.34,0,3.24-2.57,4.86-7.7,4.86-2.7,0-6.21-.41-10.54-1.22-22.83,18.37-49.38,34.11-79.64,47.21,7.16,7.7,13.78,14.12,19.86,19.25,28.23,23.91,64.44,41.47,108.61,52.69.94.14,1.42.74,1.42,1.82,0,1.35-.61,2.1-1.82,2.23-8.92,1.89-15.27,7.16-19.05,15.81-2.03,5-4.53,7.5-7.5,7.5-3.92,0-8.71-1.55-14.39-4.66-34.72-18.24-63.22-39.92-85.51-65.05-23.24-26.34-41.34-58.29-54.31-95.85ZM280.85,106.79v-48.63H97.87v48.63h182.98ZM280.85,168.19v-51.06H97.87v51.06h182.98Z"/></svg>